<?xml version="1.0" encoding="UTF-8" standalone="no"?>
<!-- Created with Inkscape (http://www.inkscape.org/) -->

<svg
   width="512"
   height="512"
   viewBox="0 0 512 512"
   version="1.1"
   id="svg1"
   inkscape:version="1.3.2 (091e20e, 2023-11-25)"
   sodipodi:docname="detection_settings_icon.svg"
   inkscape:export-filename="../images/detection_settings_icon.png"
   inkscape:export-xdpi="96"
   inkscape:export-ydpi="96"
   xmlns:inkscape="http://www.inkscape.org/namespaces/inkscape"
   xmlns:sodipodi="http://sodipodi.sourceforge.net/DTD/sodipodi-0.dtd"
   xmlns="http://www.w3.org/2000/svg"
   xmlns:svg="http://www.w3.org/2000/svg">
  <sodipodi:namedview
     id="namedview1"
     pagecolor="#505050"
     bordercolor="#eeeeee"
     borderopacity="1"
     inkscape:showpageshadow="0"
     inkscape:pageopacity="0"
     inkscape:pagecheckerboard="0"
     inkscape:deskcolor="#505050"
     inkscape:document-units="px"
     inkscape:zoom="1.272846"
     inkscape:cx="-73.457433"
     inkscape:cy="103.31179"
     inkscape:window-width="2560"
     inkscape:window-height="1412"
     inkscape:window-x="0"
     inkscape:window-y="28"
     inkscape:window-maximized="0"
     inkscape:current-layer="svg1" />
  <defs
     id="defs1">
    <linearGradient
       id="swatch2"
       inkscape:swatch="solid">
      <stop
         style="stop-color:#000000;stop-opacity:1;"
         offset="0"
         id="stop2" />
    </linearGradient>
    <filter
       style="color-interpolation-filters:sRGB;"
       inkscape:label="Blur"
       id="filter7"
       x="-0.068647875"
       y="-0.071042569"
       width="1.1372957"
       height="1.1420851">
      <feGaussianBlur
         stdDeviation="12 12"
         result="blur"
         id="feGaussianBlur7" />
    </filter>
    <filter
       style="color-interpolation-filters:sRGB;"
       inkscape:label="Blur"
       id="filter8"
       x="-0.32015633"
       y="-0.32516897"
       width="1.6403127"
       height="1.6503379">
      <feGaussianBlur
         stdDeviation="12 12"
         result="fbSourceGraphic"
         id="feGaussianBlur8" />
      <feColorMatrix
         result="fbSourceGraphicAlpha"
         in="fbSourceGraphic"
         values="0 0 0 -1 0 0 0 0 -1 0 0 0 0 -1 0 0 0 0 1 0"
         id="feColorMatrix8" />
      <feGaussianBlur
         id="feGaussianBlur9"
         stdDeviation="12 12"
         result="blur"
         in="fbSourceGraphic" />
    </filter>
    <filter
       height="2.0539807"
       width="2.0458022"
       y="-0.52699036"
       x="-0.52290111"
       style="color-interpolation-filters:sRGB;"
       inkscape:label="Blur"
       id="filter10">
      <feGaussianBlur
         stdDeviation="12 12"
         result="blur"
         id="feGaussianBlur10" />
      <feColorMatrix
         values="1 0 0 0 0 0 1 0 0 0 0 0 1 0 0 0 0 0 50 0 "
         result="colormatrix"
         id="feColorMatrix10" />
      <feComposite
         in="colormatrix"
         in2="SourceGraphic"
         operator="in"
         id="feComposite10" />
    </filter>
    <filter
       style="color-interpolation-filters:sRGB;"
       inkscape:label="Blur"
       id="filter11"
       x="-0.16007832"
       y="-0.16258396"
       width="1.3201566"
       height="1.3251679">
      <feGaussianBlur
         stdDeviation="12 12"
         result="blur"
         id="feGaussianBlur11" />
    </filter>
  </defs>
  <rect
     style="fill:#000000;fill-opacity:0.50147492;stroke:none;stroke-width:5;stroke-dasharray:none;stroke-opacity:1;filter:url(#filter7)"
     id="rect1-8"
     width="419.53229"
     height="405.39075"
     x="46.233849"
     y="53.30463"
     transform="matrix(1.0730776,0,0,1.0730776,-18.707872,-18.707873)"
     inkscape:label="backdrop shadow" />
  <g
     id="g11"
     inkscape:label="picture frame">
    <rect
       style="fill:#ffffff;fill-opacity:1;stroke:none;stroke-width:5;stroke-dasharray:none;stroke-opacity:1"
       id="rect1"
       width="419.53229"
       height="405.39075"
       x="46.233856"
       y="53.304626" />
    <rect
       style="fill:#a8e0f2;fill-opacity:1;stroke:none;stroke-width:5.62338;stroke-dasharray:none;stroke-opacity:1"
       id="rect2"
       width="373.17947"
       height="353.77643"
       x="69.410263"
       y="79.111794" />
  </g>
  <path
     style="fill:#e87655;fill-opacity:1;stroke:none;stroke-width:5.96571;stroke-dasharray:none;stroke-opacity:1"
     d="m 167.62089,184.03838 c 27.16758,-35.13307 97.78114,-52.33573 134.44907,-20.56046 36.66793,31.77526 110.94399,27.10243 70.51524,82.24185 C 332.15646,300.85919 313.3524,256 256,256 c -57.3524,0 -31.0267,55.13942 -74.27606,57.94313 -43.24934,2.8037 -41.27062,-94.77166 -14.10305,-129.90475 z"
     id="path2"
     sodipodi:nodetypes="zssssz"
     inkscape:label="picture object" />
  <g
     id="g12">
    <rect
       style="opacity:1;fill:none;fill-opacity:1;stroke:#000000;stroke-width:6;stroke-dasharray:none;stroke-opacity:1;stroke-dashoffset:0"
       id="rect3"
       width="236.46347"
       height="167.4855"
       x="147.95265"
       y="146.6329"
       inkscape:label="selection frame black" />
    <rect
       style="fill:none;fill-opacity:1;stroke:#ffff00;stroke-width:6;stroke-dasharray:36,36;stroke-dashoffset:0;stroke-opacity:1"
       id="rect3-8"
       width="236.46347"
       height="167.4855"
       x="147.95268"
       y="146.6329"
       inkscape:label="selection frame yellow" />
  </g>
  <g
     id="g6-4"
     inkscape:label="cogwheel shadow"
     transform="matrix(1.4038987,0,0,1.4038987,666.69796,428.68833)"
     style="display:inline;fill:#000000;fill-opacity:1;stroke:none;filter:url(#filter11)">
    <path
       d="m -196.0213,-128.22332 -23.70074,22.66846 -30.87385,-14.84983 a 89.955894,89.955894 0 0 0 -29.98486,22.870185 l 7.77968,31.85326 -28.29592,19.311456 a 89.955894,89.955894 0 0 0 -0.58849,6.719569 89.955894,89.955894 0 0 0 5.40209,30.6832478 l 31.47485,9.1889754 2.57653,34.1626768 a 89.955894,89.955894 0 0 0 34.79846,14.531241 l 23.69518,-22.661502 30.87245,14.848438 a 89.955894,89.955894 0 0 0 29.98486,-22.870184 l -7.77968,-31.85326 28.3001,-19.315629 a 89.955894,89.955894 0 0 0 0.58709,-6.714004 89.955894,89.955894 0 0 0 -5.39791,-30.683248 l -31.48042,-9.191758 -2.60574,-34.555004 a 89.955894,89.955894 0 0 0 -34.76368,-14.14309 z m -15.7096,38.684128 a 49.888577,49.888577 0 0 1 49.88897,49.887581 49.888577,49.888577 0 0 1 -49.88897,49.888971 49.888577,49.888577 0 0 1 -49.88758,-49.888971 49.888577,49.888577 0 0 1 49.88758,-49.887581 z"
       style="opacity:1;fill:#000000;fill-opacity:1;stroke:none;stroke-width:6"
       id="path11-9" />
    <path
       d="m -211.7309,-89.539192 a 49.888577,49.888577 0 0 0 -49.88758,49.887581 49.888577,49.888577 0 0 0 49.88758,49.888971 49.888577,49.888577 0 0 0 49.88897,-49.888971 49.888577,49.888577 0 0 0 -49.88897,-49.887581 z m 0.001,20.428602 a 29.461912,29.461912 0 0 1 29.46176,29.463152 29.461912,29.461912 0 0 1 -29.46176,29.461761 29.461912,29.461912 0 0 1 -29.46176,-29.461761 29.461912,29.461912 0 0 1 29.46176,-29.463152 z"
       style="opacity:1;fill:#000000;fill-opacity:1;stroke:none;stroke-width:6"
       id="path10-5" />
  </g>
  <g
     id="g6"
     inkscape:label="cogwheel"
     transform="matrix(1.4038987,0,0,1.4038987,666.69796,428.68833)">
    <path
       d="m -196.0213,-128.22332 -23.70074,22.66846 -30.87385,-14.84983 a 89.955894,89.955894 0 0 0 -29.98486,22.870185 l 7.77968,31.85326 -28.29592,19.311456 a 89.955894,89.955894 0 0 0 -0.58849,6.719569 89.955894,89.955894 0 0 0 5.40209,30.6832478 l 31.47485,9.1889754 2.57653,34.1626768 a 89.955894,89.955894 0 0 0 34.79846,14.531241 l 23.69518,-22.661502 30.87245,14.848438 a 89.955894,89.955894 0 0 0 29.98486,-22.870184 l -7.77968,-31.85326 28.3001,-19.315629 a 89.955894,89.955894 0 0 0 0.58709,-6.714004 89.955894,89.955894 0 0 0 -5.39791,-30.683248 l -31.48042,-9.191758 -2.60574,-34.555004 a 89.955894,89.955894 0 0 0 -34.76368,-14.14309 z m -15.7096,38.684128 a 49.888577,49.888577 0 0 1 49.88897,49.887581 49.888577,49.888577 0 0 1 -49.88897,49.888971 49.888577,49.888577 0 0 1 -49.88758,-49.888971 49.888577,49.888577 0 0 1 49.88758,-49.887581 z"
       style="opacity:1;fill:#8b8b8b;stroke:#c0c0c0;stroke-width:6;stroke-opacity:1"
       id="path11" />
    <path
       d="m -211.7309,-89.539192 a 49.888577,49.888577 0 0 0 -49.88758,49.887581 49.888577,49.888577 0 0 0 49.88758,49.888971 49.888577,49.888577 0 0 0 49.88897,-49.888971 49.888577,49.888577 0 0 0 -49.88897,-49.887581 z m 0.001,20.428602 a 29.461912,29.461912 0 0 1 29.46176,29.463152 29.461912,29.461912 0 0 1 -29.46176,29.461761 29.461912,29.461912 0 0 1 -29.46176,-29.461761 29.461912,29.461912 0 0 1 29.46176,-29.463152 z"
       style="opacity:1;fill:#898989;stroke:#c0c0c0;stroke-width:6;stroke-opacity:1"
       id="path10" />
  </g>
</svg>
